<svg width="24" height="24" viewBox="0 0 24 24" fill="none" xmlns="http://www.w3.org/2000/svg">
<g clip-path="url(#clip0)">
<path fill-rule="evenodd" clip-rule="evenodd" d="M22.8549 4.56548C22.2654 3.04576 21.0619 1.84426 19.5396 1.25579C18.6578 0.925283 17.7262 0.746535 16.7846 0.727155C15.572 0.673525 15.1883 0.658203 12.1109 0.658203C9.03351 0.658203 8.64213 0.658203 7.43726 0.727155C6.49557 0.746535 5.56399 0.925283 4.68219 1.25579C3.1599 1.84426 1.95637 3.04576 1.36691 4.56548C1.03584 5.44579 0.856792 6.37579 0.837379 7.31589C0.78366 8.52639 0.768311 8.90945 0.768311 11.9816C0.768311 15.0538 0.768311 15.4445 0.837379 16.6474C0.856792 17.5875 1.03584 18.5175 1.36691 19.3978C1.95637 20.9175 3.1599 22.119 4.68219 22.7075C5.5617 23.0511 6.49334 23.2428 7.43726 23.2744C8.6498 23.3281 9.03351 23.3434 12.1109 23.3434C15.1883 23.3434 15.5797 23.3434 16.7846 23.2744C17.7262 23.2551 18.6578 23.0764 19.5396 22.7458C21.0619 22.1574 22.2654 20.9559 22.8549 19.4361C23.1859 18.5558 23.365 17.6258 23.3844 16.6857C23.4381 15.4752 23.4535 15.0921 23.4535 12.02C23.4535 8.94776 23.4535 8.55703 23.3844 7.3542C23.3694 6.40119 23.1903 5.45787 22.8549 4.56548ZM21.3194 16.5555C21.3128 17.2801 21.1803 17.9982 20.928 18.6777C20.5459 19.6671 19.7626 20.4491 18.7714 20.8305C18.0981 21.0799 17.3868 21.212 16.6687 21.2212L16.6636 21.2214C15.4706 21.2748 15.1295 21.2901 12.0642 21.2901C8.99443 21.2901 8.67978 21.2901 7.45957 21.2212C6.74143 21.212 6.03018 21.0799 5.35682 20.8305C4.36224 20.4518 3.57556 19.6692 3.19267 18.6777C2.94288 18.0054 2.8105 17.2954 2.80128 16.5785L2.80105 16.5734C2.74751 15.3823 2.73221 15.0418 2.73221 11.9816C2.73221 8.91712 2.73221 8.603 2.80128 7.38486C2.80785 6.66019 2.94028 5.94215 3.19267 5.26267C3.57556 4.27112 4.36224 3.48855 5.35682 3.10984C6.03018 2.86047 6.74143 2.72831 7.45957 2.71911L7.46468 2.71888C8.65773 2.66543 8.99881 2.65015 12.0642 2.65015C15.1339 2.65015 15.4485 2.65015 16.6687 2.71911C17.3868 2.72831 18.0981 2.86047 18.7714 3.10984C19.7626 3.49119 20.5459 4.27321 20.928 5.26267C21.1777 5.9349 21.3101 6.64494 21.3194 7.36187L21.3195 7.36699V7.36703C21.3731 8.55801 21.3884 8.89855 21.3884 11.9587C21.3884 15.0232 21.3884 15.3527 21.3347 16.5555H21.3194ZM12.1027 6.15904C8.88577 6.15904 6.27792 8.76247 6.27792 11.974C6.27792 15.1855 8.88577 17.7889 12.1027 17.7889C15.3197 17.7889 17.9275 15.1855 17.9275 11.974C17.9275 10.4318 17.3138 8.95271 16.2215 7.8622C15.1291 6.77168 13.6475 6.15904 12.1027 6.15904ZM8.32048 11.974C8.32048 14.06 10.0144 15.751 12.1039 15.751C14.1934 15.751 15.8874 14.06 15.8874 11.974C15.8874 9.88801 14.1934 8.19693 12.1039 8.19693C10.0144 8.19693 8.32048 9.88801 8.32048 11.974Z" fill="#08090A"/>
</g>
<defs>
<clipPath id="clip0">
<rect width="23.3333" height="23.3333" fill="white" transform="translate(0.444336 0.333984)"/>
</clipPath>
</defs>
</svg>
