<svg width="30" height="30" viewBox="0 0 30 30" fill="none" xmlns="http://www.w3.org/2000/svg">
<path fill-rule="evenodd" clip-rule="evenodd" d="M6.25 3.75H23.75C25.125 3.75 26.25 4.875 26.25 6.25V23.75C26.25 25.125 25.125 26.25 23.75 26.25H6.25C4.875 26.25 3.75 25.125 3.75 23.75V6.25C3.75 4.875 4.875 3.75 6.25 3.75ZM8.43788 21.6406H11.1723H11.2504V12.6563H8.43788V21.6406ZM9.76536 11.4063C8.90598 11.4063 8.12474 10.7031 8.12474 9.76564C8.12474 8.90625 8.82786 8.12501 9.76536 8.12501C10.6247 8.12501 11.406 8.82814 11.406 9.76564C11.406 10.7031 10.7028 11.4063 9.76536 11.4063ZM18.828 21.6406H21.6405V16.7969C21.6405 14.375 21.0936 12.5 18.2811 12.5C16.8749 12.5 16.0155 13.2031 15.6249 13.9063V12.6563H12.9686V21.6406H15.7811V17.1875C15.7811 16.0156 15.9374 14.9219 17.4217 14.9219C18.828 14.9219 18.828 16.25 18.828 17.2656V21.6406Z" fill="#08090A"/>
</svg>
