<svg width="32" height="30" viewBox="0 0 32 30" fill="none" xmlns="http://www.w3.org/2000/svg">
<path d="M27.7779 8.32474C26.9029 8.68557 26.028 8.95618 25.0557 9.0464C26.028 8.50516 26.8057 7.6031 27.1945 6.61083C26.2224 7.15206 25.2501 7.51289 24.1807 7.6933C23.3056 6.79124 22.0418 6.25 20.6807 6.25C18.0557 6.25 15.9168 8.23454 15.9168 10.6702C15.9168 11.0309 15.9168 11.3918 16.014 11.6624C11.9307 11.482 8.43069 9.67783 6.09736 6.97165C5.61125 7.6933 5.4168 8.41495 5.4168 9.2268C5.4168 10.7603 6.2918 12.1134 7.55569 12.9253C6.77791 12.9253 6.00014 12.7449 5.4168 12.384C5.4168 12.384 5.4168 12.384 5.4168 12.4742C5.4168 14.6392 7.06958 16.4433 9.20845 16.8041C8.81958 16.8944 8.43069 16.9846 7.94458 16.9846C7.65292 16.9846 7.36125 16.9846 7.06958 16.8944C7.65292 18.6984 9.40293 19.9613 11.5418 19.9613C9.88902 21.1341 7.84736 21.8557 5.61125 21.8557C5.22236 21.8557 4.83347 21.8557 4.44458 21.7655C6.58347 23.0283 9.11125 23.75 11.7363 23.75C20.5835 23.75 25.3474 16.9846 25.3474 11.1211C25.3474 10.9407 25.3474 10.7603 25.3474 10.5799C26.3196 9.94841 27.0973 9.1366 27.7779 8.32474Z" fill="#08090A"/>
</svg>
